<svg width="90" height="90" viewBox="0 0 90 90" fill="none" xmlns="http://www.w3.org/2000/svg">
<g filter="url(#filter0_ii_559_2169)">
<rect width="90" height="90" rx="45" fill="url(#paint0_linear_559_2169)"/>
<path d="M51.25 56.25V53.75C51.25 52.4239 50.7232 51.1521 49.7855 50.2145C48.8479 49.2768 47.5761 48.75 46.25 48.75H36.25C34.9239 48.75 33.6521 49.2768 32.7145 50.2145C31.7768 51.1521 31.25 52.4239 31.25 53.75V56.25M58.75 56.25V53.75C58.7492 52.6422 58.3804 51.566 57.7017 50.6904C57.023 49.8148 56.0727 49.1895 55 48.9125M50 33.9125C51.0755 34.1879 52.0288 34.8134 52.7095 35.6904C53.3903 36.5674 53.7598 37.646 53.7598 38.7563C53.7598 39.8665 53.3903 40.9451 52.7095 41.8221C52.0288 42.6991 51.0755 43.3246 50 43.6M46.25 38.75C46.25 41.5114 44.0114 43.75 41.25 43.75C38.4886 43.75 36.25 41.5114 36.25 38.75C36.25 35.9886 38.4886 33.75 41.25 33.75C44.0114 33.75 46.25 35.9886 46.25 38.75Z" stroke="white" stroke-width="2" stroke-linecap="round" stroke-linejoin="round"/>
</g>
<defs>
<filter id="filter0_ii_559_2169" x="0" y="0" width="90" height="90" filterUnits="userSpaceOnUse" color-interpolation-filters="sRGB">
<feFlood flood-opacity="0" result="BackgroundImageFix"/>
<feBlend mode="normal" in="SourceGraphic" in2="BackgroundImageFix" result="shape"/>
<feColorMatrix in="SourceAlpha" type="matrix" values="0 0 0 0 0 0 0 0 0 0 0 0 0 0 0 0 0 0 127 0" result="hardAlpha"/>
<feOffset dy="-2"/>
<feComposite in2="hardAlpha" operator="arithmetic" k2="-1" k3="1"/>
<feColorMatrix type="matrix" values="0 0 0 0 0 0 0 0 0 0.12549 0 0 0 0 0.25098 0 0 0 0.1 0"/>
<feBlend mode="normal" in2="shape" result="effect1_innerShadow_559_2169"/>
<feColorMatrix in="SourceAlpha" type="matrix" values="0 0 0 0 0 0 0 0 0 0 0 0 0 0 0 0 0 0 127 0" result="hardAlpha"/>
<feOffset dy="2"/>
<feComposite in2="hardAlpha" operator="arithmetic" k2="-1" k3="1"/>
<feColorMatrix type="matrix" values="0 0 0 0 1 0 0 0 0 1 0 0 0 0 1 0 0 0 0.25 0"/>
<feBlend mode="normal" in2="effect1_innerShadow_559_2169" result="effect2_innerShadow_559_2169"/>
</filter>
<linearGradient id="paint0_linear_559_2169" x1="45" y1="0" x2="45" y2="90" gradientUnits="userSpaceOnUse">
<stop stop-color="#409FFF"/>
<stop offset="1" stop-color="#007FFF"/>
</linearGradient>
</defs>
</svg>
