<svg width="40" height="50" viewBox="0 0 40 50" fill="none" xmlns="http://www.w3.org/2000/svg">
<g filter="url(#filter0_ii_559_3884)">
<path d="M40 20C40 36.0457 20 50 20 50C20 50 0 36.0457 0 20C0 8.9543 8.9543 0 20 0C31.0457 0 40 8.9543 40 20Z" fill="url(#paint0_linear_559_3884)"/>
</g>
<path d="M26.9835 12.8834L23.3335 11.6667C23.3335 12.5508 22.9823 13.3986 22.3572 14.0238C21.7321 14.6489 20.8842 15.0001 20.0002 15.0001C19.1161 15.0001 18.2683 14.6489 17.6431 14.0238C17.018 13.3986 16.6668 12.5508 16.6668 11.6667L13.0168 12.8834C12.6396 13.0091 12.3198 13.2654 12.115 13.6062C11.9103 13.947 11.8341 14.3497 11.9002 14.7417L12.3835 17.6334C12.4152 17.8292 12.5157 18.0072 12.6669 18.1355C12.8182 18.2638 13.0102 18.334 13.2085 18.3334H15.0002V26.6667C15.0002 27.5834 15.7502 28.3334 16.6668 28.3334H23.3335C23.7755 28.3334 24.1994 28.1578 24.512 27.8453C24.8246 27.5327 25.0002 27.1088 25.0002 26.6667V18.3334H26.7918C26.9901 18.334 27.1822 18.2638 27.3334 18.1355C27.4846 18.0072 27.5851 17.8292 27.6168 17.6334L28.1002 14.7417C28.1663 14.3497 28.09 13.947 27.8853 13.6062C27.6805 13.2654 27.3607 13.0091 26.9835 12.8834V12.8834Z" stroke="white" stroke-width="2" stroke-linecap="round" stroke-linejoin="round"/>
<defs>
<filter id="filter0_ii_559_3884" x="0" y="0" width="40" height="50" filterUnits="userSpaceOnUse" color-interpolation-filters="sRGB">
<feFlood flood-opacity="0" result="BackgroundImageFix"/>
<feBlend mode="normal" in="SourceGraphic" in2="BackgroundImageFix" result="shape"/>
<feColorMatrix in="SourceAlpha" type="matrix" values="0 0 0 0 0 0 0 0 0 0 0 0 0 0 0 0 0 0 127 0" result="hardAlpha"/>
<feOffset dy="-2"/>
<feComposite in2="hardAlpha" operator="arithmetic" k2="-1" k3="1"/>
<feColorMatrix type="matrix" values="0 0 0 0 0 0 0 0 0 0.12549 0 0 0 0 0.25098 0 0 0 0.1 0"/>
<feBlend mode="normal" in2="shape" result="effect1_innerShadow_559_3884"/>
<feColorMatrix in="SourceAlpha" type="matrix" values="0 0 0 0 0 0 0 0 0 0 0 0 0 0 0 0 0 0 127 0" result="hardAlpha"/>
<feOffset dy="2"/>
<feComposite in2="hardAlpha" operator="arithmetic" k2="-1" k3="1"/>
<feColorMatrix type="matrix" values="0 0 0 0 1 0 0 0 0 1 0 0 0 0 1 0 0 0 0.25 0"/>
<feBlend mode="normal" in2="effect1_innerShadow_559_3884" result="effect2_innerShadow_559_3884"/>
</filter>
<linearGradient id="paint0_linear_559_3884" x1="20" y1="0" x2="20" y2="50" gradientUnits="userSpaceOnUse">
<stop stop-color="#409FFF"/>
<stop offset="1" stop-color="#007FFF"/>
</linearGradient>
</defs>
</svg>
