<svg width="78" height="78" viewBox="0 0 78 78" fill="none" xmlns="http://www.w3.org/2000/svg">
<path d="M63.9997 32.1332C67.1022 33.9209 69.7516 36.3987 71.7428 39.3747C73.7341 42.3507 75.0137 45.7451 75.4826 49.295C75.9515 52.8448 75.597 56.455 74.4468 59.8459C73.2965 63.2369 71.3813 66.3176 68.8493 68.8495C66.3174 71.3815 63.2366 73.2967 59.8457 74.447C56.4548 75.5973 52.8446 75.9517 49.2947 75.4828C45.7448 75.0139 42.3505 73.7343 39.3745 71.7431C36.3985 69.7518 33.9207 67.1024 32.133 63.9999M22.333 19H25.6663V32.3334M56.6664 46.6668L58.9997 49.0002L49.6664 58.3335M48.9997 25.6667C48.9997 38.5534 38.553 49 25.6663 49C12.7797 49 2.33301 38.5534 2.33301 25.6667C2.33301 12.7801 12.7797 2.33337 25.6663 2.33337C38.553 2.33337 48.9997 12.7801 48.9997 25.6667Z" stroke="white" stroke-width="3" stroke-linejoin="round"/>
</svg>
