<svg width="69" height="70" viewBox="0 0 69 70" fill="none" xmlns="http://www.w3.org/2000/svg">
<path d="M18.3337 68.3333H8.33366C6.56555 68.3333 4.86986 67.6309 3.61961 66.3807C2.36937 65.1304 1.66699 63.4347 1.66699 61.6666V38.3333C1.66699 36.5652 2.36937 34.8695 3.61961 33.6192C4.86986 32.369 6.56555 31.6666 8.33366 31.6666H18.3337M41.667 25V11.6666C41.667 9.01446 40.6134 6.47092 38.7381 4.59556C36.8627 2.72019 34.3192 1.66663 31.667 1.66663L18.3337 31.6666V68.3333H55.9337C57.5414 68.3515 59.1016 67.788 60.3267 66.7466C61.5518 65.7053 62.3592 64.2563 62.6003 62.6666L67.2003 32.6666C67.3453 31.7111 67.2809 30.7356 67.0115 29.8075C66.742 28.8794 66.274 28.0209 65.6398 27.2917C65.0057 26.5624 64.2206 25.9797 63.3389 25.584C62.4572 25.1883 61.5 24.989 60.5337 25H41.667Z" stroke="white" stroke-width="3" stroke-linejoin="round"/>
</svg>
