<svg width="68" height="46" viewBox="0 0 68 46" fill="none" xmlns="http://www.w3.org/2000/svg">
<path d="M25.6663 34H42.333M8.99968 34H2.33301V2.00004C2.33301 2.00004 35.7885 2.00004 54.8664 2.00004C56.1088 1.99139 57.3289 2.33012 58.3891 2.978C59.4493 3.62588 60.3073 4.55714 60.8664 5.66671L63.533 11.1C64.9325 13.8821 65.663 16.9525 65.6664 20.0667V34H58.9997M25.6663 35.6667C25.6663 40.2691 21.9354 44 17.333 44C12.7306 44 8.99968 40.2691 8.99968 35.6667C8.99968 31.0643 12.7306 27.3334 17.333 27.3334C21.9354 27.3334 25.6663 31.0643 25.6663 35.6667ZM58.9997 35.6667C58.9997 40.2691 55.2687 44 50.6664 44C46.064 44 42.333 40.2691 42.333 35.6667C42.333 31.0643 46.064 27.3334 50.6664 27.3334C55.2687 27.3334 58.9997 31.0643 58.9997 35.6667Z" stroke="white" stroke-width="3" stroke-linecap="round" stroke-linejoin="round"/>
</svg>
