<svg width="68" height="76" viewBox="0 0 68 76" fill="none" xmlns="http://www.w3.org/2000/svg">
<path d="M33.9935 39.16V47.4934M33.9935 47.4934H10.6602V55.8267M33.9935 47.4934H57.3268V55.8267M33.9935 47.4934V55.8267M33.9935 55.8267H24.9935V73.8267H42.9935V55.8267H33.9935ZM47.9935 55.8267H66.3268V73.8267H47.9935V55.8267ZM1.66016 55.8267H19.6602V73.8267H1.66016V55.8267ZM34.4019 2.16003H33.5952C32.6227 2.16003 31.6899 2.54638 31.0022 3.23407C30.3146 3.92177 29.9282 4.85449 29.9282 5.82703V6.15706C29.9275 6.80012 29.7578 7.43169 29.436 7.98843C29.1142 8.54517 28.6516 9.00749 28.0947 9.32902L27.3063 9.78739C26.7488 10.1092 26.1165 10.2787 25.4728 10.2787C24.8291 10.2787 24.1968 10.1092 23.6393 9.78739L23.3643 9.64071C22.5228 9.15532 21.5231 9.02364 20.5847 9.27458C19.6462 9.52552 18.8457 10.1386 18.3588 10.9792L17.9555 11.6759C17.4701 12.5174 17.3384 13.517 17.5893 14.4555C17.8403 15.3939 18.4533 16.1945 19.2939 16.6814L19.5689 16.8647C20.1232 17.1847 20.584 17.6441 20.9056 18.1973C21.2273 18.7506 21.3986 19.3784 21.4024 20.0183V20.9534C21.405 21.5996 21.2368 22.2349 20.9148 22.7952C20.5928 23.3554 20.1285 23.8206 19.5689 24.1437L19.2939 24.3087C18.4533 24.7956 17.8403 25.5961 17.5893 26.5346C17.3384 27.473 17.4701 28.4727 17.9555 29.3142L18.3588 30.0109C18.8457 30.8515 19.6462 31.4645 20.5847 31.7155C21.5231 31.9664 22.5228 31.8347 23.3643 31.3493L23.6393 31.2027C24.1968 30.8808 24.8291 30.7114 25.4728 30.7114C26.1165 30.7114 26.7488 30.8808 27.3063 31.2027L28.0947 31.661C28.6516 31.9826 29.1142 32.4449 29.436 33.0016C29.7578 33.5584 29.9275 34.1899 29.9282 34.833V35.163C29.9282 36.1356 30.3146 37.0683 31.0022 37.756C31.6899 38.4437 32.6227 38.83 33.5952 38.83H34.4019C35.3745 38.83 36.3072 38.4437 36.9949 37.756C37.6826 37.0683 38.0689 36.1356 38.0689 35.163V34.833C38.0696 34.1899 38.2394 33.5584 38.5612 33.0016C38.883 32.4449 39.3455 31.9826 39.9024 31.661L40.6908 31.2027C41.2483 30.8808 41.8807 30.7114 42.5244 30.7114C43.168 30.7114 43.8004 30.8808 44.3578 31.2027L44.6329 31.3493C45.4743 31.8347 46.474 31.9664 47.4125 31.7155C48.3509 31.4645 49.1514 30.8515 49.6383 30.0109L50.0417 29.2958C50.5271 28.4544 50.6588 27.4547 50.4078 26.5162C50.1569 25.5778 49.5438 24.7773 48.7032 24.2904L48.4282 24.1437C47.8686 23.8206 47.4043 23.3554 47.0824 22.7952C46.7604 22.2349 46.5922 21.5996 46.5947 20.9534V20.0367C46.5922 19.3905 46.7604 18.7551 47.0824 18.1949C47.4043 17.6347 47.8686 17.1694 48.4282 16.8464L48.7032 16.6814C49.5438 16.1945 50.1569 15.3939 50.4078 14.4555C50.6588 13.517 50.5271 12.5174 50.0417 11.6759L49.6383 10.9792C49.1514 10.1386 48.3509 9.52552 47.4125 9.27458C46.474 9.02364 45.4743 9.15532 44.6329 9.64071L44.3578 9.78739C43.8004 10.1092 43.168 10.2787 42.5244 10.2787C41.8807 10.2787 41.2483 10.1092 40.6908 9.78739L39.9024 9.32902C39.3455 9.00749 38.883 8.54517 38.5612 7.98843C38.2394 7.43169 38.0696 6.80012 38.0689 6.15706V5.82703C38.0689 4.85449 37.6826 3.92177 36.9949 3.23407C36.3072 2.54638 35.3745 2.16003 34.4019 2.16003ZM39.4991 20.495C39.4991 23.5329 37.0364 25.9955 33.9986 25.9955C30.9607 25.9955 28.4981 23.5329 28.4981 20.495C28.4981 17.4572 30.9607 14.9945 33.9986 14.9945C37.0364 14.9945 39.4991 17.4572 39.4991 20.495Z" stroke="current" stroke-width="3" stroke-linecap="round" stroke-linejoin="round"/>
</svg>
