<svg width="62" height="66" viewBox="0 0 62 66" fill="none" xmlns="http://www.w3.org/2000/svg">
<g filter="url(#filter0_d_559_3939)">
<path d="M16.333 55.6667H49.6663M26.333 55.6667C44.6663 47.3334 28.9997 34.3334 36.333 22.3334M36.333 22.3334C36.1799 17.6205 37.4583 12.9719 39.9997 9.00004C42.9997 5.66671 47.333 2.66671 56.333 2.33337C55.9997 10 53.9997 14.3334 50.6663 17.6667C47.333 20.3334 42.6663 22 36.333 22.3334ZM24.6663 20.3333C28.333 23 30.6663 27.6667 32.333 32.6667C25.6663 34 20.6663 34 16.333 31.6667C12.333 29.6667 8.66634 25.3333 6.33301 17.6666C15.6663 16 20.9997 17.6666 24.6663 20.3333Z" stroke="white" stroke-width="3" stroke-linejoin="round" shape-rendering="crispEdges"/>
</g>
<defs>
<filter id="filter0_d_559_3939" x="0.833008" y="0.833374" width="61" height="64.3334" filterUnits="userSpaceOnUse" color-interpolation-filters="sRGB">
<feFlood flood-opacity="0" result="BackgroundImageFix"/>
<feColorMatrix in="SourceAlpha" type="matrix" values="0 0 0 0 0 0 0 0 0 0 0 0 0 0 0 0 0 0 127 0" result="hardAlpha"/>
<feOffset dy="4"/>
<feGaussianBlur stdDeviation="2"/>
<feComposite in2="hardAlpha" operator="out"/>
<feColorMatrix type="matrix" values="0 0 0 0 0 0 0 0 0 0 0 0 0 0 0 0 0 0 0.25 0"/>
<feBlend mode="normal" in2="BackgroundImageFix" result="effect1_dropShadow_559_3939"/>
<feBlend mode="normal" in="SourceGraphic" in2="effect1_dropShadow_559_3939" result="shape"/>
</filter>
</defs>
</svg>
